<?xml version="1.0" encoding="utf-8"?>
<!-- Generator: Adobe Illustrator 21.0.0, SVG Export Plug-In . SVG Version: 6.00 Build 0)  -->
<svg version="1.1" id="Capa_1" xmlns="http://www.w3.org/2000/svg" xmlns:xlink="http://www.w3.org/1999/xlink" x="0px" y="0px"
	 viewBox="0 0 512 512" style="enable-background:new 0 0 512 512;" xml:space="preserve">
<style type="text/css">
	.st0{fill:#63DD3D;}
	.st1{fill:#4FCC21;}
	.st2{fill:#67D44A;}
	.st3{fill:#72B667;}
	.st4{fill:#71AC68;}
	.st5{fill:#6FAD66;}
	.st6{fill:#73B665;}
	.st7{fill:#663797;}
	.st8{fill:#6A5E83;}
	.st9{fill:#663F90;}
	.st10{fill:#73AE69;}
	.st11{fill:#72B665;}
	.st12{fill:#66478E;}
	.st13{fill:#6FA76C;}
	.st14{fill:#6DC061;}
	.st15{fill:#67468B;}
	.st16{fill:#71B169;}
	.st17{fill:#5E4A8D;}
	.st18{fill:#673F8F;}
	.st19{fill:#61528B;}
	.st20{fill:#673797;}
	.st21{fill:#731AB6;}
	.st22{fill:#664A89;}
	.st23{fill:#675180;}
	.st24{fill:#634E87;}
	.st25{fill:#664B8A;}
	.st26{fill:#6F2AA2;}
	.st27{fill:#64488E;}
	.st28{fill:#623E90;}
	.st29{fill:#72BF68;}
	.st30{fill:#70BF5D;}
	.st31{fill:#664D88;}
	.st32{fill:#72C35F;}
	.st33{fill:#71BE64;}
	.st34{fill:#694288;}
	.st35{fill:#6FAB69;}
	.st36{fill:#71AE66;}
	.st37{fill:#73B25F;}
	.st38{fill:#665A83;}
	.st39{fill:#6EB266;}
	.st40{fill:#72AC68;}
	.st41{fill:#63DC3D;}
	.st42{fill:#6FB564;}
	.st43{fill:#73BD61;}
	.st44{fill:#741BB5;}
	.st45{fill:#731BB4;}
	.st46{fill:#721CB4;}
	.st47{fill:#66D74A;}
	.st48{fill:#6BC755;}
	.st49{fill:#6C26A7;}
	.st50{fill:#731BB5;}
	.st51{fill:#731DB4;}
</style>
<path class="st0" d="M256,163.1c-36,0-65.3,29.3-65.3,65.3c0,12.2,3.4,24.1,9.8,34.3l51.1,83.6c0.9,1.4,2.2,2.3,3.7,2.5
	c2.1,0.3,4.4-0.5,5.6-2.6l51.2-84.4c6.1-10,9.3-21.7,9.3-33.4C321.3,192.4,292,163.1,256,163.1z M256,261.1
	c-18.3,0-32.7-14.8-32.7-32.7c0-18,14.7-32.7,32.7-32.7s32.7,14.7,32.7,32.7C288.7,246.2,274.5,261.1,256,261.1z"/>
<path class="st1" d="M256,163.1v32.7c18,0,32.7,14.7,32.7,32.7c0,17.7-14.2,32.7-32.7,32.7v87.8c1.9,0,3.8-0.8,4.8-2.7l51.2-84.4
	c6.1-10,9.3-21.7,9.3-33.4C321.3,192.4,292,163.1,256,163.1z"/>
<g>
	<path class="st2" d="M271.2,176.2c3.6-0.3,6.3,1.9,9.3,3.4c3.9,1.9,7.8,4.2,11,7.2c4.2,4,8.2,8.1,11.2,13.2
		c3.1,5.4,5.3,11.1,6.8,17c1.4,5.8,1.2,11.8,0.7,17.8c-0.4,3.7-1.8,7.3-1.6,11.1c0.1,1.4-1.4,0.7-1.8,1.5c-0.5-0.4-0.7-0.9-0.7-1.6
		c-0.1-1.4,0.3-2.6,0.7-3.9c0.9-2.6,0.7-5.4,1-8c1.4-3.6,1.2-7.3,0.1-10.9c-0.3-0.5-0.4-1.1-0.5-1.7c0.1-5.6-1.5-10.8-4.2-15.6
		c-0.3-0.6-0.7-1.2-1-1.8c-2.6-5.2-5.9-9.7-10.2-13.6c-5.5-5.1-11.8-8.8-18.7-11.6c-0.8-0.3-1.7-0.4-2.1-1.4
		C270.8,176.9,270.9,176.5,271.2,176.2z"/>
	<path class="st3" d="M287.6,272.2c-12,8.3-25.1,12.2-39.7,9.8c-2.5-0.4-5.1-0.6-7.4-1.8c0.1-0.3,0.3-0.5,0.6-0.7
		c2.7-0.7,5.2,0.5,7.7,0.8c3.4,0.4,6.9,0.3,10.2,0.2c2.8-0.1,5.8-0.8,8.6-1.5c2.7-0.6,5-1.8,7.5-3c2.7-0.4,4.9-2,7.3-3.3
		c1.6-0.9,3.2-2,5.3-1.4C287.8,271.7,287.8,272,287.6,272.2z"/>
	<path class="st4" d="M211.7,259.1c-1-0.5-1.5-1.4-2.1-2.3c-6.9-11.5-9.5-23.8-7.3-37.1c0.6-3.5,1-7.1,3-10.3
		c0.7,0.4,1.1,1.1,1.3,1.9c-0.2,1.5-1,2.8-1.1,4.4c-0.6,3.1-0.8,6.2-2.2,9.2c-0.8,1.8-0.8,3.9-0.2,5.7c1.7,4.5,1.4,9.6,3.5,14
		c-0.7,3.1,2,4.8,2.9,7.3c0.2,0.5,0.4,0.9,0.7,1.3c0.5,0.8,0.8,1.7,1.4,2.3c0.2,0.2,0.3,0.4,0.4,0.7
		C212.4,257.2,212.5,258.2,211.7,259.1z"/>
	<path class="st5" d="M271.2,176.2c0,0.3,0.1,0.5,0.1,0.8c-0.6,1.1-1.5,0.4-2.3,0.5c-3.4,0.1-6.7-0.2-10-1.6c-2-0.9-4.3-0.9-6.4,0.2
		c-1,0.5-2,0.7-3,1c-0.3,0.1-0.5,0.1-0.8,0.2c-1.1,0.2-2.2,0.1-3.3,0.4c-0.2,0.1-0.5,0.1-0.7,0.2c-1.7,0.3-3.4,0.7-5,1.3
		c-0.2,0.1-0.4,0.2-0.7,0.3c-1.7,0.4-3.2,1.2-4.8,1.7c-0.5,0.1-1.1,0.3-1.6,0c-0.3-0.1-0.5-0.3-0.6-0.5c-0.1-0.3-0.1-0.5,0.1-0.8
		c6.6-4,13.9-5.1,21.3-5.7C259.5,173.7,265.4,174.8,271.2,176.2z"/>
	<path class="st6" d="M232.2,179.8c0,0.2,0,0.3,0,0.5c-0.1,0.7-0.2,1.3-0.5,1.9c-0.1,0.2-0.3,0.4-0.5,0.6c-0.9,0.6-1.9,0.9-2.7,1.6
		c-0.8,0.5-1.5,1.1-2.3,1.5c-5.3,3.4-9.6,7.8-13.2,12.9c-0.7,0.4-1.5,0.5-2.3,0.2c1.3-3.4,3.8-6,6.3-8.5
		C221.4,186,226.1,181.9,232.2,179.8z"/>
	<path class="st7" d="M301.1,256.8c-0.8,1.4-1.7,2.8-2.5,4.2c-0.8,1-1.6,2-2.5,3c-1.7,1.4-3.1,3.1-4.7,4.6c-0.6,0.6-1.1,1.5-2.1,1.3
		c-0.2-0.1-0.4-0.3-0.5-0.5c-0.3-0.9,0.2-1.5,0.7-2.1c4.3-4.1,8.1-8.6,11.1-13.8c0.6-1,1.3-1.7,2.5-0.8
		C303.1,254.3,302.2,255.6,301.1,256.8z"/>
	<path class="st8" d="M210.6,199c0.5-0.4,1-0.9,1.5-1.3c1.1,0.7,0.8,1.6,0.3,2.5c-1.9,3.3-3.6,6.7-5.2,10.2c-0.4,0.8-0.8,1.6-2,1.1
		c0-0.7,0-1.4,0.1-2.1c0,0,0,0,0,0c0.6-1.2,0.7-2.6,1.5-3.7l0,0c0.4-0.7,0.5-1.6,1.1-2.1C208.8,202,209.7,200.5,210.6,199z"/>
	<path class="st9" d="M225.2,272.3c-3.4-2.1-6.5-4.6-8.9-7.8c-0.2-0.2-0.2-0.5-0.1-0.8c1-0.8,1.8-0.2,2.5,0.5c2.1,2,4.3,3.8,6.5,5.7
		c0.8,0.7,1.4,1.3,0.8,2.4C225.7,272.5,225.5,272.4,225.2,272.3z"/>
	<path class="st10" d="M301.1,256.8c0.6-1.4,1.3-2.8,1.9-4.2c-0.9-1.3,0.1-2.6,0.2-3.8c0.4-1.8,1.5-2.8,3.2-3.1c0,0.6,0,1.1,0,1.7
		c-1.2,2.5-2.1,5.2-3.7,7.6C302.4,255.7,302.1,256.5,301.1,256.8z"/>
	<path class="st11" d="M289.3,269.7c2.6-1.5,4.3-4.2,6.7-6c0.3,0.3,0.3,0.7,0,1c-2.8,2.5-5.3,5.4-8.4,7.4c0-0.2,0-0.5-0.1-0.7
		C287.4,270.2,288,269.6,289.3,269.7z"/>
	<path class="st12" d="M216.4,263.7c0,0.2-0.1,0.5-0.1,0.7c-1.9-1.5-3.1-3.5-4.6-5.3c-0.4-0.9-0.8-1.8-1.2-2.7
		c0.6-0.6,1.4-0.6,1.8,0c1.6,2,3.4,3.8,4.3,6.3C216.8,263,216.6,263.4,216.4,263.7z"/>
	<path class="st13" d="M241.3,280c-0.3,0.1-0.6,0.1-0.8,0.2c-2.3-0.7-4.8-1.1-6.9-2.6c0-0.3,0.1-0.5,0.3-0.7
		c2.1-0.9,4.1,0.5,6.1,0.6c0.3,0.1,0.5,0.3,0.7,0.5C241.2,278.6,241.5,279.2,241.3,280z"/>
	<path class="st13" d="M231.6,276.5c-1.9-0.5-3.5-1.3-4.7-2.8c0.2-0.4,0.5-0.6,0.9-0.7c0.3-0.1,0.5-0.1,0.8-0.1
		c1.6,0.5,2.7,1.5,3.4,3C231.9,276.2,231.8,276.4,231.6,276.5z"/>
	<path class="st14" d="M296,264.8c0-0.3,0-0.7,0-1c0.7-1,1.2-2.3,2.6-2.8C298.3,262.6,297,263.6,296,264.8z"/>
	<path class="st4" d="M206.8,205.7c-0.3,1.3-0.6,2.7-1.5,3.7C205.4,208,205.6,206.6,206.8,205.7z"/>
	<path class="st15" d="M228,273.8c-0.4,0-0.8,0-1.1-0.1c-0.5-0.5-1.1-1-1.6-1.5c0.3,0,0.5-0.1,0.8-0.1
		C227.4,271.8,228.2,272.1,228,273.8z"/>
	<path class="st13" d="M233.6,277.6c-0.7-0.4-1.4-0.7-2.1-1.1c0.1-0.1,0.2-0.2,0.2-0.3c0.8-0.6,1.5-0.2,2.1,0.4
		c0.1,0.3,0.1,0.5,0,0.8C233.8,277.5,233.7,277.6,233.6,277.6z"/>
	<path class="st16" d="M208,203.5c-0.1,0.8-0.4,1.6-1.1,2.1C206.8,204.8,207.2,204,208,203.5z"/>
	<path class="st17" d="M269.2,176.6c0.7,0.1,1.4,0.2,2.1,0.3c14,4.5,24.7,13,31.6,26.1c0.3,0.3,0.3,0.7,0.1,1.1
		c-2,0.7-2.4-1.1-3-2.1c-3.6-6.1-8.3-11-13.9-15.3c-5-3.8-10.5-6.3-16.5-8.1c-1-0.3-2.8-0.2-2-2.2
		C268.2,176.4,268.7,176.3,269.2,176.6z"/>
	<path class="st18" d="M306.5,245.7c-0.7,1.3-1.4,2.6-2,3.9c-1.2-0.6-1-1.7-0.8-2.7c0.3-1.4,0.8-2.7,1.3-4c1.9-5.6,2.1-11.3,2-17.1
		c0-1.6-0.4-3.4,0.9-4.7c0.3-0.2,0.6-0.2,0.9,0c0,0.5,0.1,1,0.1,1.4c0.3,4,0.3,8,0,12C308.9,238.3,307.4,242,306.5,245.7z"/>
	<path class="st19" d="M308.7,221c-0.2,0-0.4,0-0.5,0c-1.4-0.1-1.7-1.2-1.8-2.2c-0.7-4.1-2.1-7.9-3.6-11.7c-0.4-1-0.5-2,0.2-3
		c0-0.4,0-0.7,0-1.1C306.2,208.6,308.1,214.6,308.7,221z"/>
	<path class="st19" d="M308.8,234.4c0-4,0-8,0-12C309.7,226.4,309.7,230.4,308.8,234.4z"/>
	<path class="st20" d="M241.3,280c-0.4-0.3-0.8-0.6-1.3-0.9c0.5-1.3,1.6-1.1,2.7-1c2.7,0,5.2,1,7.8,1.3c6.8,0.8,13.5,0.1,20-2
		c1.6-0.5,3.3-1.4,5.1-0.6c0.3,0.2,0.5,0.4,0.6,0.7c-8.4,3.8-17.2,4.9-26.2,3.9C247,281.1,244.2,280.5,241.3,280z"/>
	<path class="st7" d="M276.1,277.5c-0.3,0-0.5-0.1-0.8-0.1c-0.4-1.2,0.2-1.8,1.2-2.2c3.4-1.4,6.5-3.4,9.5-5.5c0.9-0.6,1.9-1.5,3-0.3
		c0.1,0.1,0.2,0.2,0.2,0.3c-0.6,0.6-1.2,1.2-1.8,1.8C283.8,273.6,280.4,276.3,276.1,277.5z"/>
	<path class="st21" d="M289.1,269.4c-4.4,2.9-8.9,5.8-13.7,8c-5.9,1.8-11.9,3.4-18.2,3.6c-5,0.2-9.9-1-14.8-1.7
		c-0.8-0.1-1.6-0.2-2.3-0.2c0,0,0,0,0,0c-2.2-0.7-4.2-1.7-6.3-2.4c-2.1-0.7-3.8-2-5.8-2.9c0,0,0,0,0,0c-0.7-0.5-1.3-1.1-2-1.6
		c-3.3-2.6-6.5-5.5-9.6-8.5c-2.2-2.3-3.5-5.2-5.9-7.3c0,0,0,0,0,0c-0.5-0.9-0.7-2-1.7-2.6c-0.1-0.4-0.3-0.7-0.4-1.1
		c-1.3-2.8-2.4-5.7-3.4-8.5c-2.7-8.9-3.2-17.9-1.1-27.1c0.2-0.7-0.1-1.4,0.3-2c0.3-1.2,0.7-2.4,1-3.6c2.3-4.6,4.5-9.2,6.8-13.9
		c3.6-5.1,8.1-9.4,13.2-13.1c0.9-0.5,1.9-0.9,2.7-1.6c0.9-0.5,1.9-0.8,2.7-1.5l0,0c0.7-0.5,1.4-0.8,2.2-0.9c0.3-0.2,0.6-0.4,0.9-0.7
		c1.8-0.7,3.6-1.4,5.3-2.1l0,0c1.9-0.7,3.9-0.9,5.8-1.6l0.1,0c1.2-0.6,2.5,0.2,3.7-0.5l0,0c5.8-0.9,11.5-0.6,17.3,0.4
		c0.6,0.1,1.2,0.3,1.6,0.7c8.8,2.2,16.7,6.1,23.5,12.2c4.9,4.4,8.6,9.6,11.9,15.2c2.4,5.4,4.2,11,5.3,16.9c0,7.3,0.7,14.7-1.7,21.8
		c-0.7,2.2-1.9,4.4-1.9,6.8c-0.5,1-1,2-1.5,3c-2.4,1.9-3.3,4.9-5,7.2C295.3,263.4,292.1,266.3,289.1,269.4z"/>
	<path class="st22" d="M204.2,215.1c-0.1,3.5-1,6.9-1.1,10.4c-0.2,6.5,0.5,12.9,2.2,19.1c0.2,0.3,0.2,0.6-0.1,0.8
		C201.8,235.4,201,225.3,204.2,215.1z"/>
	<path class="st12" d="M205.2,245.4c0-0.3,0.1-0.5,0.1-0.8c1.4,2.5,2.4,5.3,3.1,8.1C206.8,250.5,205.9,248,205.2,245.4z"/>
	<path class="st12" d="M208.8,253.8c1.2,0.4,1.8,1.3,1.7,2.6C209.7,255.7,209.2,254.8,208.8,253.8z"/>
	<path class="st23" d="M267.5,176.7c-6.2-1.6-12.6-1-18.9-1.1c3.1-1.3,6.4-1,9.6-0.8c3.8,0.2,7.5,0.7,11.1,1.9
		C268.6,176.7,268,176.7,267.5,176.7z"/>
	<path class="st23" d="M244.8,176.1c-1.7,1.2-3.7,1.4-5.8,1.6C240.8,176.6,242.8,176.3,244.8,176.1z"/>
	<path class="st23" d="M239.1,177.7c-1.6,1.2-3.4,1.8-5.3,2.1C235.3,178.6,237.1,178,239.1,177.7z"/>
	<path class="st23" d="M248.5,175.6c-1.2,0.7-2.4,0.7-3.7,0.5C246,175.5,247.3,175.5,248.5,175.6z"/>
	<path class="st24" d="M232.8,180.5c-0.6,0.5-1.3,0.9-2.2,0.9c0.4-0.6,1-0.9,1.6-1.1C232.4,180.3,232.6,180.4,232.8,180.5z"/>
	<path class="st24" d="M230.6,181.4c-0.5,1-1.5,1.4-2.5,1.7c-0.3,0.2-0.5,0.2-0.7-0.1C228.4,182.2,229.4,181.6,230.6,181.4z"/>
	<path class="st25" d="M227.4,183c0.2,0,0.5,0.1,0.7,0.1c-0.8,0.7-1.7,1.4-2.9,1.5C225.8,183.8,226.6,183.3,227.4,183z"/>
	<path class="st20" d="M233.8,276.4c2.2,0.6,4.4,1.3,6.3,2.7c-2.3,0.1-4.1-1.4-6.3-1.7c0-0.1-0.1-0.3-0.1-0.4
		C233.5,276.8,233.5,276.6,233.8,276.4z"/>
	<path class="st15" d="M233.8,276.4c0,0.2,0,0.4,0,0.6c-0.6-0.3-1.3-0.5-1.9-0.8c-1.3-0.8-2.7-1.4-3.8-2.5
		C230.2,274,231.8,275.7,233.8,276.4z"/>
	<path class="st26" d="M282.8,194.1c2.3,0.7,3.8,2.6,5.2,4.3c8.4,9.5,12.2,20.7,11.6,33.4c-0.1,2.4-1,4.8-1.5,7.1
		c-0.8-0.5-0.7-1.3-0.8-2c0.3-3.7,0.2-7.5,0.1-11.2c-0.1-4.1-0.4-8.5-2.9-12.2c-0.9-4.2-3.4-7.5-6-10.8c-2.1-2.6-4.5-5-6.2-7.9
		C282.4,194.5,282.6,194.3,282.8,194.1z"/>
	<path class="st27" d="M282.8,194.1c0,0.2-0.1,0.4-0.1,0.7c-1.5,0.8-2.7,0.4-3.9-0.7c-8.9-5.9-18.5-8.6-29.2-6.4
		c-3.1-0.1-6.1,0.6-8.9,2c-1.2,0.6-2.7,0.8-3.9-0.3c2.2-2,4.9-2.6,7.6-3.3C258.6,182.6,271.3,185.3,282.8,194.1z"/>
	<path class="st28" d="M279.6,264.7c-5.1,3.8-10.9,5.8-17.1,6.8c-9,1.5-17.6,0.3-25.7-4c0.1-0.3,0.3-0.5,0.6-0.6
		c0.7-0.3,1.4-0.1,2,0.2c3,1.1,6,1.7,9.1,2.2c2.9,0.4,5.8,0.5,8.8,0.6c4.4,0.2,8.6-1,12.6-2.7c1.4-0.6,2.8-1.4,4.2-2.1
		C276,265.1,277.7,263.4,279.6,264.7z"/>
	<path class="st29" d="M236.9,189.4c3.2-0.8,6.1-2.4,9.4-3c1.1-0.2,2.2-0.2,3.4-0.4c0.3,2-1.4,2-2.5,2.3c-3.6,1-7.1,2.2-10.5,3.9
		c-3.7,1.8-6.6,4.5-9.6,7.1c-1.1,0.9-2,2.6-3.9,1.7c-0.2-0.3-0.1-0.5,0.1-0.7C226.8,195.6,231.7,192.3,236.9,189.4z"/>
	<path class="st30" d="M222,254.8c-4.5-5.3-7.4-11.4-8.4-18.4c-0.7-4.3-1.2-8.6-0.4-12.9c2.2,0.2,1.6,2,1.7,3.2
		c0.2,5.2,0.7,10.3,2.5,15.2c1.2,3.2,2.6,6.3,4.6,9.1c0.8,1.1,1.8,2.2,0.8,3.8C222.6,255,222.3,255,222,254.8z"/>
	<path class="st3" d="M213.8,223.7c-1,2.8-0.6,5.7-0.3,8.6c0.1,1.4,0.4,2.8,0.2,4.2c-1.9-6.3-1.2-12.5,0.3-18.7c1-4.1,2.5-8,5-11.5
		c0.3-0.2,0.5-0.2,0.8,0c0.9,0.8,0.6,1.8,0.1,2.6c-2.2,4.1-3.7,8.3-4.4,12.9C215.3,222.7,215,223.6,213.8,223.7z"/>
	<path class="st31" d="M298.1,236.7c0,0.7,0,1.5,0,2.2c-1.1,3.6-2.3,7.1-4.1,10.4c-0.6,1.1-1.1,2.2-2.2,2.8
		c-1.1-1.4-0.7-2.8,0.1-4.2c0.6-1,1.1-2.1,1.4-3.3c1.2-2.1,1.7-4.6,2.9-6.7C296.8,237.6,297,236.5,298.1,236.7z"/>
	<path class="st32" d="M279.6,264.7c-1.7,0.1-2.9,1.4-4.5,1.8c-0.3,0.1-0.5,0.2-0.8,0c-0.7-1.5,0.5-2.1,1.4-2.6
		c3-1.6,5.7-3.6,8.1-6.2c0.8-0.8,1.7-1.3,2.8-0.5c0.7,1-0.1,1.6-0.7,2.2c-1.9,1.9-4,3.5-6.2,5C279.7,264.4,279.6,264.5,279.6,264.7z
		"/>
	<path class="st33" d="M222,254.8c0.2,0,0.5-0.1,0.7-0.1c0.8-0.5,1.5-0.2,2.1,0.4c2.1,2.2,4.4,4.2,6.7,6.2c0.8,0.7,1.5,1.3,0.8,2.4
		c-0.2,0.2-0.5,0.2-0.7,0C227.7,261.5,224.6,258.5,222,254.8z"/>
	<path class="st34" d="M279.7,264.3c1.4-1.8,3.5-2.8,5.1-4.4c0.7-0.7,1.7-1.3,1.9-2.4c-0.1-0.8,0.2-1.3,0.9-1.6
		c0.4,0,0.8,0.1,1.1,0.4C286.6,260,283.4,262.5,279.7,264.3z"/>
	<path class="st35" d="M288.7,256.3c-0.3,0-0.7,0.1-1,0.1c-0.8-0.6-0.9-1.4-0.4-2c1.4-1.8,2.7-3.7,4-5.5c0.5-0.7,1.2-0.9,2.1-0.5
		c-0.1,1.4-1.4,2.4-1.6,3.8C290.7,253.6,289.7,254.9,288.7,256.3z"/>
	<path class="st36" d="M219.6,206.2c-0.2,0-0.4,0-0.6,0c1-2.3,2.4-4.2,4.2-5.9c0,0.2,0.1,0.5,0.1,0.7
		C223.6,203.6,221.9,205.9,219.6,206.2z"/>
	<path class="st37" d="M231.6,263.8c0.2,0,0.5-0.1,0.7-0.1c1.6-1,2.5-0.2,3,1.3c0,0.3-0.1,0.6-0.3,0.8c-0.8,0.5-1.3-0.2-1.9-0.4
		C232.6,264.9,231.7,264.8,231.6,263.8z"/>
	<path class="st38" d="M233.2,265.4c0.6,0.1,1.1,0.2,1.7,0.3c1.4-0.2,2.5,0,2.7,1.7c-0.2,0.1-0.5,0.1-0.7,0.2
		C235.6,266.9,234.1,266.6,233.2,265.4z"/>
	<path class="st39" d="M279.7,192.9c1,0.6,2,1.2,3,1.9c5.7,4.8,10.4,10.5,12.9,17.7c0.2,0.4,0.2,0.7,0.1,1.1
		c-1.3,0.7-1.8-0.3-2.2-1.2c-3.1-6.7-7.4-12.3-13.2-16.8C279.5,195,278.7,194.1,279.7,192.9z"/>
	<path class="st40" d="M295.5,213.6c0-0.4,0-0.8,0.1-1.2c2.8,6.2,3.6,12.7,3,19.4c-0.1,1.6-0.3,3.3-0.5,4.9
		c-0.3,0.6-0.6,1.2-0.9,1.8c-0.5-0.1-0.8-0.5-1.1-0.9c-0.4-0.8-0.2-1.5,0-2.3c0.9-6,0.6-12-1-17.9
		C294.8,216.2,294.1,214.8,295.5,213.6z"/>
	<path class="st41" d="M295.5,213.6c2.3,7.8,3.3,15.6,1.5,23.7c-0.3,2.9-1.1,5.6-2.5,8.1c-0.4,1-0.8,2-1.1,3c-1.9,2.7-3.8,5.3-5.7,8
		c-0.3,0.3-0.6,0.7-1,1c-1.8,0.4-2.5,2.1-3.7,3.1c-2.7,2.3-5.7,3.9-8.6,5.8c-4.8,3.2-10.4,4.1-15.9,4.5c-7.8,0.5-15.3-1-22.3-4.7
		c-0.5-0.2-0.9-0.5-1.3-0.9c-0.9-0.5-1.7-1-2.6-1.5c-3.5-2.7-6.7-5.6-9.6-8.9c-2.9-4.5-5.7-9-7.2-14.2c-1.6-5.6-1.8-11.2-1.8-16.9
		c0.8-6.2,3-11.9,5.8-17.4c1.2-1.7,2.5-3.5,3.7-5.2c1.7-1.6,3.5-3.2,5.2-4.7c5.3-4.6,11.4-7.6,18.3-9.1c1-0.2,2-0.7,2.9-1.1
		c10.9-1.8,20.8,0.8,30,6.8c1.7,2.5,4.4,4,6.5,6.1C290.3,203.3,293,208.4,295.5,213.6z"/>
	<path class="st42" d="M234.9,265.2c4.8,2.3,9.8,4.2,15.1,4.9c8.5,1.1,16.6-0.2,24.3-3.8c0.3,0,0.5,0.1,0.8,0.1
		c-11.6,6.2-23.5,6.2-35.6,1.7c-0.7-0.2-1.3-0.5-1.9-0.8c-0.9-0.6-1.8-1.1-2.7-1.7C234.9,265.5,234.9,265.3,234.9,265.2z"/>
	<path class="st43" d="M294.5,245.4c0.8-2.7,1.7-5.4,2.5-8.1c0.1,0.4,0.1,0.8,0.2,1.3C296.7,241,296.4,243.5,294.5,245.4z"/>
	<path class="st44" d="M258,221.7c0-4,0.1-8.1,0-12.1c-0.1-2.1,0.8-2.9,2.8-2.8c8.1,0.3,6.6-1,6.8,6.4c0.1,6.7-0.1,13.3,0.1,20
		c0,2.5-0.9,3.3-3.3,3.2c-7.5-0.3-6.1,0.9-6.3-6.3C257.9,227.3,258,224.5,258,221.7C258,221.7,258,221.7,258,221.7z"/>
	<path class="st45" d="M271.7,223.5c0-3.4,0-6.9,0-10.3c0-1.5,0.6-2.1,2.1-1.9c2,0.4,4,0.7,6,1.1c1.2,0.2,1.6,1,1.6,2.1
		c0,6.6,0,13.2,0,19.8c0,1.5-0.7,2.1-2.1,2.1c-0.1,0-0.2,0-0.3,0c-8.9,0.1-7,0.5-7.2-6.7C271.6,227.5,271.6,225.5,271.7,223.5
		C271.6,223.5,271.6,223.5,271.7,223.5z"/>
	<path class="st46" d="M240.1,225.2c0,2.8-0.1,5.6,0,8.4c0.1,2.1-0.8,2.8-2.8,2.8c-8.2-0.1-6.7,0.8-6.8-6.6c-0.1-4,0-8.1,0-12.1
		c0-1.5,0.4-2.3,1.9-2.6c1.9-0.3,3.8-0.7,5.7-1c1.6-0.2,2,0.7,2,2.1C240.1,219.2,240.1,222.2,240.1,225.2z"/>
	<path class="st47" d="M255,222.9c0,3.9,0,7.9,0,11.8c0,1.7-1.1,2.4-2.5,2.5c-2.5,0.2-5.1,0.1-7.6,0c-2-0.1-2.2-1.7-2.2-3.3
		c0-6,0-11.9,0-17.9c0-6.1,0-6.1,6.1-7.3c0.8-0.1,1.5-0.4,2.2-0.7c2.6-1,3.9-0.2,3.9,2.7C255,214.9,255,218.9,255,222.9
		C255,222.9,255,222.9,255,222.9z"/>
	<path class="st48" d="M269.7,251.1c-2.7,0-5.4,0-8.2,0c-0.5,0-1.1,0-1.6,0c-3.3-0.2-2.9-2.7-2.9-4.9c-0.1-5.7,0.3-6.6,2.8-6.7
		c6.6-0.1,13.2,0,19.7,0c2,0,2.6,1.4,2.5,3c-0.1,1.9-0.2,3.8,0,5.8c0.2,2-1,2.8-2.9,2.8C276,251.1,272.8,251.1,269.7,251.1z"/>
	<path class="st49" d="M253.8,222.8c0,3.7-0.1,7.4,0,11.1c0,1.7-0.6,2.3-2.3,2.4c-7.3,0.5-7.3,0.5-7.3-6.6c0-5.4,0-10.7,0-16.1
		c0-2,0.5-3.2,2.7-3.2c0.5,0,1-0.1,1.6-0.3c5.9-1.4,5.3-1.2,5.3,4.5C253.8,217.4,253.8,220.1,253.8,222.8z"/>
	<path class="st50" d="M269.5,240.5c3.2,0,6.3,0,9.5,0c1.6,0,2.2,0.6,2.2,2.2c-0.2,8.4,1.3,7.2-6.9,7.3c-4.6,0-9.1,0-13.7,0
		c-1.9,0-2.6-0.8-2.6-2.7c-0.1-6.8-0.1-6.8,6.8-6.8C266.4,240.5,267.9,240.5,269.5,240.5C269.5,240.5,269.5,240.5,269.5,240.5z"/>
	<path class="st51" d="M252.8,223.1c0,3.2,0,6.3,0,9.5c0,1.9-0.8,2.8-2.7,2.7c-1-0.1-1.9,0-2.9,0c-1.5,0-1.9-0.3-1.9-2.2
		c0.3-5.8,0.1-11.6,0-17.3c0-3.5,2.8-5.8,6.2-4.9c1.3,0.3,1.2,1.4,1.2,2.3c0,0.2,0,0.4,0,0.5C252.8,216.8,252.8,220,252.8,223.1z"/>
</g>
</svg>
